<mxfile host="app.diagrams.net" modified="2024-07-07T21:24:44.144Z" agent="Mozilla/5.0 (Windows NT 10.0; Win64; x64) AppleWebKit/537.36 (KHTML, like Gecko) Chrome/126.0.0.0 Safari/537.36" etag="JxOLf82JNALPtcb42sjZ" version="24.6.4" type="github">
  <diagram name="Page-1" id="xNGtwcLamrueNrUXn7V0">
    <mxGraphModel dx="1277" dy="1035" grid="1" gridSize="10" guides="1" tooltips="1" connect="1" arrows="1" fold="1" page="1" pageScale="1" pageWidth="850" pageHeight="1100" math="0" shadow="0">
      <root>
        <mxCell id="0" />
        <mxCell id="1" parent="0" />
        <mxCell id="vbhIrUB7vra0cQjbyuGe-2" value="Сервис" style="rounded=1;whiteSpace=wrap;html=1;fillColor=#d5e8d4;strokeColor=#82b366;verticalAlign=top;gradientColor=#97d077;" parent="1" vertex="1">
          <mxGeometry x="260" y="170" width="400" height="260" as="geometry" />
        </mxCell>
        <mxCell id="vbhIrUB7vra0cQjbyuGe-3" value="Внешняя система" style="rounded=1;whiteSpace=wrap;html=1;verticalAlign=top;fillColor=#999999;strokeColor=#666666;fontColor=#333333;" parent="1" vertex="1">
          <mxGeometry x="32.5" y="30" width="170" height="150" as="geometry" />
        </mxCell>
        <mxCell id="vbhIrUB7vra0cQjbyuGe-4" value="Сервис" style="rounded=1;whiteSpace=wrap;html=1;fillColor=#d5e8d4;strokeColor=#82b366;verticalAlign=top;gradientColor=#97d077;" parent="1" vertex="1">
          <mxGeometry x="10" y="320" width="170" height="150" as="geometry" />
        </mxCell>
        <mxCell id="vbhIrUB7vra0cQjbyuGe-5" value="Сервис" style="rounded=1;whiteSpace=wrap;html=1;fillColor=#d5e8d4;strokeColor=#82b366;verticalAlign=top;gradientColor=#97d077;" parent="1" vertex="1">
          <mxGeometry x="150" y="620" width="200" height="160" as="geometry" />
        </mxCell>
        <mxCell id="vbhIrUB7vra0cQjbyuGe-6" value="Купим внешнюю систему" style="rounded=1;whiteSpace=wrap;html=1;verticalAlign=top;fillColor=#999999;strokeColor=#666666;fontColor=#333333;" parent="1" vertex="1">
          <mxGeometry x="425" y="680" width="220" height="150" as="geometry" />
        </mxCell>
        <mxCell id="vbhIrUB7vra0cQjbyuGe-7" value="Сервис" style="rounded=1;whiteSpace=wrap;html=1;fillColor=#d5e8d4;strokeColor=#82b366;verticalAlign=top;gradientColor=#97d077;" parent="1" vertex="1">
          <mxGeometry x="720" y="630" width="170" height="150" as="geometry" />
        </mxCell>
        <mxCell id="vbhIrUB7vra0cQjbyuGe-8" value="Сервис" style="rounded=1;whiteSpace=wrap;html=1;fillColor=#d5e8d4;strokeColor=#82b366;verticalAlign=top;gradientColor=#97d077;" parent="1" vertex="1">
          <mxGeometry x="790" y="350" width="190" height="150" as="geometry" />
        </mxCell>
        <mxCell id="vbhIrUB7vra0cQjbyuGe-9" value="Сервис" style="rounded=1;whiteSpace=wrap;html=1;fillColor=#d5e8d4;strokeColor=#82b366;verticalAlign=top;gradientColor=#97d077;" parent="1" vertex="1">
          <mxGeometry x="730" y="20" width="210" height="140" as="geometry" />
        </mxCell>
        <mxCell id="vbhIrUB7vra0cQjbyuGe-10" value="расчёт и списание средств у клиентов и сотрудников" style="rounded=1;whiteSpace=wrap;html=1;" parent="1" vertex="1">
          <mxGeometry x="770" y="65" width="140" height="70" as="geometry" />
        </mxCell>
        <mxCell id="vbhIrUB7vra0cQjbyuGe-11" value="система ставок менеджмента" style="rounded=1;whiteSpace=wrap;html=1;" parent="1" vertex="1">
          <mxGeometry x="815" y="400" width="140" height="70" as="geometry" />
        </mxCell>
        <mxCell id="vbhIrUB7vra0cQjbyuGe-26" value="read-only, sync" style="edgeStyle=orthogonalEdgeStyle;rounded=0;orthogonalLoop=1;jettySize=auto;html=1;curved=1;strokeWidth=2;" parent="1" source="vbhIrUB7vra0cQjbyuGe-12" target="vbhIrUB7vra0cQjbyuGe-11" edge="1">
          <mxGeometry relative="1" as="geometry" />
        </mxCell>
        <mxCell id="vbhIrUB7vra0cQjbyuGe-29" value="read-only, sync" style="edgeStyle=orthogonalEdgeStyle;rounded=0;orthogonalLoop=1;jettySize=auto;html=1;curved=1;strokeWidth=2;entryX=1;entryY=0;entryDx=0;entryDy=0;" parent="1" source="vbhIrUB7vra0cQjbyuGe-12" target="vbhIrUB7vra0cQjbyuGe-14" edge="1">
          <mxGeometry relative="1" as="geometry">
            <Array as="points">
              <mxPoint x="650" y="715" />
              <mxPoint x="650" y="650" />
              <mxPoint x="313" y="650" />
            </Array>
          </mxGeometry>
        </mxCell>
        <mxCell id="vbhIrUB7vra0cQjbyuGe-12" value="entity-сервис воркеров" style="rounded=1;whiteSpace=wrap;html=1;" parent="1" vertex="1">
          <mxGeometry x="742.5" y="680" width="125" height="70" as="geometry" />
        </mxCell>
        <mxCell id="vbhIrUB7vra0cQjbyuGe-13" value="производство&lt;div&gt;Fur-tune печенья&lt;/div&gt;" style="rounded=1;whiteSpace=wrap;html=1;" parent="1" vertex="1">
          <mxGeometry x="472.5" y="730" width="125" height="70" as="geometry" />
        </mxCell>
        <mxCell id="vbhIrUB7vra0cQjbyuGe-14" value="сборка необходимых расходников для заказа" style="rounded=1;whiteSpace=wrap;html=1;" parent="1" vertex="1">
          <mxGeometry x="187.5" y="670" width="125" height="70" as="geometry" />
        </mxCell>
        <mxCell id="vbhIrUB7vra0cQjbyuGe-21" value="async" style="edgeStyle=orthogonalEdgeStyle;rounded=0;orthogonalLoop=1;jettySize=auto;html=1;entryX=0;entryY=0.5;entryDx=0;entryDy=0;curved=1;" parent="1" source="vbhIrUB7vra0cQjbyuGe-15" target="vbhIrUB7vra0cQjbyuGe-18" edge="1">
          <mxGeometry relative="1" as="geometry" />
        </mxCell>
        <mxCell id="vbhIrUB7vra0cQjbyuGe-15" value="скоринг работников перед тем, как добавить их в систему как воркеров" style="rounded=1;whiteSpace=wrap;html=1;" parent="1" vertex="1">
          <mxGeometry x="32.5" y="370" width="125" height="70" as="geometry" />
        </mxCell>
        <mxCell id="vbhIrUB7vra0cQjbyuGe-20" value="sync" style="edgeStyle=orthogonalEdgeStyle;rounded=0;orthogonalLoop=1;jettySize=auto;html=1;exitX=1;exitY=0.5;exitDx=0;exitDy=0;entryX=0;entryY=0.25;entryDx=0;entryDy=0;curved=1;" parent="1" source="vbhIrUB7vra0cQjbyuGe-16" target="vbhIrUB7vra0cQjbyuGe-18" edge="1">
          <mxGeometry relative="1" as="geometry" />
        </mxCell>
        <mxCell id="vbhIrUB7vra0cQjbyuGe-16" value="happy cat box" style="rounded=1;whiteSpace=wrap;html=1;" parent="1" vertex="1">
          <mxGeometry x="55" y="80" width="125" height="70" as="geometry" />
        </mxCell>
        <mxCell id="vbhIrUB7vra0cQjbyuGe-17" value="матчинг сотрудников и клиентов" style="rounded=1;whiteSpace=wrap;html=1;" parent="1" vertex="1">
          <mxGeometry x="300" y="220" width="125" height="70" as="geometry" />
        </mxCell>
        <mxCell id="vbhIrUB7vra0cQjbyuGe-22" value="async" style="edgeStyle=orthogonalEdgeStyle;rounded=0;orthogonalLoop=1;jettySize=auto;html=1;curved=1;" parent="1" source="vbhIrUB7vra0cQjbyuGe-18" target="vbhIrUB7vra0cQjbyuGe-14" edge="1">
          <mxGeometry relative="1" as="geometry" />
        </mxCell>
        <mxCell id="vbhIrUB7vra0cQjbyuGe-18" value="планирование визитов" style="rounded=1;whiteSpace=wrap;html=1;" parent="1" vertex="1">
          <mxGeometry x="300" y="320" width="125" height="70" as="geometry" />
        </mxCell>
        <mxCell id="vbhIrUB7vra0cQjbyuGe-23" value="async" style="edgeStyle=orthogonalEdgeStyle;rounded=0;orthogonalLoop=1;jettySize=auto;html=1;entryX=0;entryY=0.5;entryDx=0;entryDy=0;curved=1;" parent="1" source="vbhIrUB7vra0cQjbyuGe-19" target="vbhIrUB7vra0cQjbyuGe-10" edge="1">
          <mxGeometry relative="1" as="geometry" />
        </mxCell>
        <mxCell id="vbhIrUB7vra0cQjbyuGe-24" value="async" style="edgeStyle=orthogonalEdgeStyle;rounded=0;orthogonalLoop=1;jettySize=auto;html=1;entryX=0;entryY=0.5;entryDx=0;entryDy=0;curved=1;" parent="1" source="vbhIrUB7vra0cQjbyuGe-19" target="vbhIrUB7vra0cQjbyuGe-11" edge="1">
          <mxGeometry relative="1" as="geometry" />
        </mxCell>
        <mxCell id="vbhIrUB7vra0cQjbyuGe-19" value="контроль качества работы сотрудников" style="rounded=1;whiteSpace=wrap;html=1;" parent="1" vertex="1">
          <mxGeometry x="480" y="320" width="125" height="70" as="geometry" />
        </mxCell>
        <mxCell id="vbhIrUB7vra0cQjbyuGe-25" value="sync" style="edgeStyle=orthogonalEdgeStyle;rounded=0;orthogonalLoop=1;jettySize=auto;html=1;exitX=1;exitY=0.5;exitDx=0;exitDy=0;curved=1;" parent="1" source="vbhIrUB7vra0cQjbyuGe-14" target="vbhIrUB7vra0cQjbyuGe-13" edge="1">
          <mxGeometry relative="1" as="geometry" />
        </mxCell>
        <mxCell id="vbhIrUB7vra0cQjbyuGe-27" value="read-only, sync" style="edgeStyle=orthogonalEdgeStyle;rounded=0;orthogonalLoop=1;jettySize=auto;html=1;curved=1;strokeWidth=2;exitX=1;exitY=0.5;exitDx=0;exitDy=0;" parent="1" source="vbhIrUB7vra0cQjbyuGe-12" target="vbhIrUB7vra0cQjbyuGe-10" edge="1">
          <mxGeometry relative="1" as="geometry">
            <Array as="points">
              <mxPoint x="1020" y="715" />
              <mxPoint x="1020" y="280" />
              <mxPoint x="840" y="280" />
            </Array>
          </mxGeometry>
        </mxCell>
        <mxCell id="vbhIrUB7vra0cQjbyuGe-28" value="read-only, sync" style="edgeStyle=orthogonalEdgeStyle;rounded=0;orthogonalLoop=1;jettySize=auto;html=1;entryX=0.913;entryY=1.008;entryDx=0;entryDy=0;entryPerimeter=0;curved=1;strokeWidth=2;exitX=0;exitY=0.5;exitDx=0;exitDy=0;" parent="1" source="vbhIrUB7vra0cQjbyuGe-12" target="vbhIrUB7vra0cQjbyuGe-2" edge="1">
          <mxGeometry x="0.5107" y="-5" relative="1" as="geometry">
            <mxPoint as="offset" />
          </mxGeometry>
        </mxCell>
        <mxCell id="vbhIrUB7vra0cQjbyuGe-30" value="read+write, sync" style="edgeStyle=orthogonalEdgeStyle;rounded=0;orthogonalLoop=1;jettySize=auto;html=1;entryX=0.5;entryY=1;entryDx=0;entryDy=0;curved=1;startArrow=classic;startFill=1;exitX=0.196;exitY=1;exitDx=0;exitDy=0;exitPerimeter=0;" parent="1" source="vbhIrUB7vra0cQjbyuGe-15" target="vbhIrUB7vra0cQjbyuGe-12" edge="1">
          <mxGeometry x="0.1694" relative="1" as="geometry">
            <Array as="points">
              <mxPoint x="57" y="560" />
              <mxPoint x="60" y="560" />
              <mxPoint x="60" y="860" />
              <mxPoint x="805" y="860" />
            </Array>
            <mxPoint as="offset" />
          </mxGeometry>
        </mxCell>
        <mxCell id="vbhIrUB7vra0cQjbyuGe-31" value="instability = 5/(5+1) = 0.83" style="text;html=1;align=center;verticalAlign=middle;whiteSpace=wrap;rounded=0;fontSize=13;fillColor=#d5e8d4;strokeColor=#82b366;" parent="1" vertex="1">
          <mxGeometry x="722.5" y="790" width="165" height="30" as="geometry" />
        </mxCell>
        <mxCell id="0rhsqGU5WUcalmotg9Ps-1" value="instability = 2/(2+1) = 0.67" style="text;html=1;align=center;verticalAlign=middle;whiteSpace=wrap;rounded=0;fontSize=13;fillColor=#d5e8d4;strokeColor=#82b366;" vertex="1" parent="1">
          <mxGeometry x="22.5" y="480" width="165" height="30" as="geometry" />
        </mxCell>
        <mxCell id="0rhsqGU5WUcalmotg9Ps-2" value="instability = 0/(0+2) = 0" style="text;html=1;align=center;verticalAlign=middle;whiteSpace=wrap;rounded=0;fontSize=13;fillColor=#d5e8d4;strokeColor=#82b366;" vertex="1" parent="1">
          <mxGeometry x="757.5" y="170" width="165" height="30" as="geometry" />
        </mxCell>
        <mxCell id="0rhsqGU5WUcalmotg9Ps-3" value="instability = 0/(0+2) = 0" style="text;html=1;align=center;verticalAlign=middle;whiteSpace=wrap;rounded=0;fontSize=13;fillColor=#d5e8d4;strokeColor=#82b366;" vertex="1" parent="1">
          <mxGeometry x="802.5" y="510" width="165" height="30" as="geometry" />
        </mxCell>
        <mxCell id="0rhsqGU5WUcalmotg9Ps-4" value="instability = 3/(3+3) = 0.5" style="text;html=1;align=center;verticalAlign=middle;whiteSpace=wrap;rounded=0;fontSize=13;fillColor=#d5e8d4;strokeColor=#82b366;" vertex="1" parent="1">
          <mxGeometry x="380" y="440" width="165" height="30" as="geometry" />
        </mxCell>
        <mxCell id="0rhsqGU5WUcalmotg9Ps-5" value="instability = 1/(1+2) = 0.33" style="text;html=1;align=center;verticalAlign=middle;whiteSpace=wrap;rounded=0;fontSize=13;fillColor=#d5e8d4;strokeColor=#82b366;" vertex="1" parent="1">
          <mxGeometry x="167.5" y="790" width="165" height="30" as="geometry" />
        </mxCell>
      </root>
    </mxGraphModel>
  </diagram>
</mxfile>
